<svg id="visual" viewBox="0 0 540 960" width="540" height="960" xmlns="http://www.w3.org/2000/svg"
	xmlns:xlink="http://www.w3.org/1999/xlink" version="1.1">
	<path
		d="M0 270L8.2 281.2C16.3 292.3 32.7 314.7 49 329C65.3 343.3 81.7 349.7 98 333.7C114.3 317.7 130.7 279.3 147 273C163.3 266.7 179.7 292.3 196 298.7C212.3 305 228.7 292 245.2 276C261.7 260 278.3 241 294.8 233C311.3 225 327.7 228 344 232.8C360.3 237.7 376.7 244.3 393 249.2C409.3 254 425.7 257 442 249C458.3 241 474.7 222 491 212.5C507.3 203 523.7 203 531.8 203L540 203L540 0L531.8 0C523.7 0 507.3 0 491 0C474.7 0 458.3 0 442 0C425.7 0 409.3 0 393 0C376.7 0 360.3 0 344 0C327.7 0 311.3 0 294.8 0C278.3 0 261.7 0 245.2 0C228.7 0 212.3 0 196 0C179.7 0 163.3 0 147 0C130.7 0 114.3 0 98 0C81.7 0 65.3 0 49 0C32.7 0 16.3 0 8.2 0L0 0Z"
		fill="#6198ff"></path>
	<path
		d="M0 443L8.2 447.7C16.3 452.3 32.7 461.7 49 463.2C65.3 464.7 81.7 458.3 98 450.3C114.3 442.3 130.7 432.7 147 440.7C163.3 448.7 179.7 474.3 196 477.7C212.3 481 228.7 462 245.2 433.2C261.7 404.3 278.3 365.7 294.8 360.8C311.3 356 327.7 385 344 401C360.3 417 376.7 420 393 421.5C409.3 423 425.7 423 442 403.8C458.3 384.7 474.7 346.3 491 325.7C507.3 305 523.7 302 531.8 300.5L540 299L540 201L531.8 201C523.7 201 507.3 201 491 210.5C474.7 220 458.3 239 442 247C425.7 255 409.3 252 393 247.2C376.7 242.3 360.3 235.7 344 230.8C327.7 226 311.3 223 294.8 231C278.3 239 261.7 258 245.2 274C228.7 290 212.3 303 196 296.7C179.7 290.3 163.3 264.7 147 271C130.7 277.3 114.3 315.7 98 331.7C81.7 347.7 65.3 341.3 49 327C32.7 312.7 16.3 290.3 8.2 279.2L0 268Z"
		fill="#3c80ff"></path>
	<path
		d="M0 500L8.2 520.8C16.3 541.7 32.7 583.3 49 602.5C65.3 621.7 81.7 618.3 98 612C114.3 605.7 130.7 596.3 147 598C163.3 599.7 179.7 612.3 196 610.7C212.3 609 228.7 593 245.2 557.8C261.7 522.7 278.3 468.3 294.8 465.2C311.3 462 327.7 510 344 524.3C360.3 538.7 376.7 519.3 393 519.3C409.3 519.3 425.7 538.7 442 524.3C458.3 510 474.7 462 491 438C507.3 414 523.7 414 531.8 414L540 414L540 297L531.8 298.5C523.7 300 507.3 303 491 323.7C474.7 344.3 458.3 382.7 442 401.8C425.7 421 409.3 421 393 419.5C376.7 418 360.3 415 344 399C327.7 383 311.3 354 294.8 358.8C278.3 363.7 261.7 402.3 245.2 431.2C228.7 460 212.3 479 196 475.7C179.7 472.3 163.3 446.7 147 438.7C130.7 430.7 114.3 440.3 98 448.3C81.7 456.3 65.3 462.7 49 461.2C32.7 459.7 16.3 450.3 8.2 445.7L0 441Z"
		fill="#0066ff"></path>
	<path
		d="M0 721L8.2 738.7C16.3 756.3 32.7 791.7 49 799.7C65.3 807.7 81.7 788.3 98 785C114.3 781.7 130.7 794.3 147 804C163.3 813.7 179.7 820.3 196 801.2C212.3 782 228.7 737 245.2 705C261.7 673 278.3 654 294.8 660.5C311.3 667 327.7 699 344 711.7C360.3 724.3 376.7 717.7 393 720.8C409.3 724 425.7 737 442 729C458.3 721 474.7 692 491 652C507.3 612 523.7 561 531.8 535.5L540 510L540 412L531.8 412C523.7 412 507.3 412 491 436C474.7 460 458.3 508 442 522.3C425.7 536.7 409.3 517.3 393 517.3C376.7 517.3 360.3 536.7 344 522.3C327.7 508 311.3 460 294.8 463.2C278.3 466.3 261.7 520.7 245.2 555.8C228.7 591 212.3 607 196 608.7C179.7 610.3 163.3 597.7 147 596C130.7 594.3 114.3 603.7 98 610C81.7 616.3 65.3 619.7 49 600.5C32.7 581.3 16.3 539.7 8.2 518.8L0 498Z"
		fill="#0059dd"></path>
	<path
		d="M0 961L8.2 961C16.3 961 32.7 961 49 961C65.3 961 81.7 961 98 961C114.3 961 130.7 961 147 961C163.3 961 179.7 961 196 961C212.3 961 228.7 961 245.2 961C261.7 961 278.3 961 294.8 961C311.3 961 327.7 961 344 961C360.3 961 376.7 961 393 961C409.3 961 425.7 961 442 961C458.3 961 474.7 961 491 961C507.3 961 523.7 961 531.8 961L540 961L540 508L531.8 533.5C523.7 559 507.3 610 491 650C474.7 690 458.3 719 442 727C425.7 735 409.3 722 393 718.8C376.7 715.7 360.3 722.3 344 709.7C327.7 697 311.3 665 294.8 658.5C278.3 652 261.7 671 245.2 703C228.7 735 212.3 780 196 799.2C179.7 818.3 163.3 811.7 147 802C130.7 792.3 114.3 779.7 98 783C81.7 786.3 65.3 805.7 49 797.7C32.7 789.7 16.3 754.3 8.2 736.7L0 719Z"
		fill="#004cbb"></path>
</svg>